#!OML:ASF H:\Terrain\Patient Classification 1\Takeo\Monday\TakeoMonday.ASF
:FULLY-SPECIFIED
:DEGREES
1159
root 10.6256 16.4012 -1.25646 -1.94331 -23.9241 3.226
lowerback 21.7398 -0.884603 2.77196
upperback 9.88821 -0.755381 1.29009
thorax -1.38584 -0.400157 -0.0286839
lowerneck -13.7294 10.8546 4.10544
upperneck -2.37242 14.3258 -14.2258
head 2.86547 6.69002 -3.91214
rclavicle 3.85642e-014 -5.56597e-015
rhumerus -17.9407 28.0132 -78.9814
rradius 101.435
rwrist 8.05969
rhand -31.3621 35.9769
rfingers 7.12502
rthumb -4.63275 6.04758
lclavicle 3.85642e-014 -5.56597e-015
lhumerus -29.2649 -10.8894 96.3222
lradius 109.045
lwrist 21.7554
lhand -29.0414 0.641265
lfingers 7.12502
lthumb -2.39173 30.6076
rfemur -20.7819 -10.5042 16.0643
rtibia 56.1402
rfoot -31.386 -17.356
rtoes -11.1556
lfemur -35.3946 14.2075 -23.7429
ltibia 54.106
lfoot -13.991 10.3568
ltoes -9.2596
1160
root 10.6088 16.4104 -1.246 -1.79331 -22.8299 3.25482
lowerback 21.8125 -0.694049 2.32297
upperback 9.97073 -0.590624 1.19509
thorax -1.32929 -0.32561 0.0880494
lowerneck -13.98 10.5293 3.90659
upperneck -2.42271 13.8868 -13.8107
head 2.80133 6.48067 -3.79598
rclavicle 5.1684e-015 -2.06736e-014
rhumerus -16.1036 28.5279 -78.4518
rradius 101.02
rwrist 8.11026
rhand -31.4404 35.4756
rfingers 7.12502
rthumb -4.70836 5.54788
lclavicle 5.1684e-015 -2.06736e-014
lhumerus -29.3026 -10.68 96.3613
lradius 109.237
lwrist 21.6612
lhand -28.8305 0.573506
lfingers 7.12502
lthumb -2.18798 30.542
rfemur -20.611 -11.1944 16.0209
rtibia 56.0337
rfoot -31.4572 -17.7934
rtoes -11.287
lfemur -35.5226 13.6206 -23.9243
ltibia 53.9032
lfoot -13.8236 9.74589
ltoes -7.16797
1161
root 10.5975 16.4167 -1.2431 -1.68569 -21.5052 3.41398
lowerback 22.0267 -0.595906 1.90971
upperback 9.99407 -0.533463 1.01949
thorax -1.4103 -0.301618 0.124463
lowerneck -14.1235 10.1923 3.75947
upperneck -2.51056 13.4243 -13.4065
head 2.71445 6.26508 -3.69739
rclavicle -5.28767e-014 1.82882e-014
rhumerus -14.3875 28.8237 -78.017
rradius 100.359
rwrist 8.45544
rhand -31.573 35.3067
rfingers 7.12502
rthumb -4.83643 5.38193
lclavicle -5.28767e-014 1.82882e-014
lhumerus -29.2771 -10.5943 96.1626
lradius 109.259
lwrist 21.0593
lhand -28.3696 0.526473
lfingers 7.12502
lthumb -1.74285 30.4991
rfemur -20.425 -12.2152 15.7855
rtibia 55.9218
rfoot -31.3347 -18.2897
rtoes -11.4089
lfemur -35.6173 12.8394 -24.2808
ltibia 53.7164
lfoot -13.6828 9.10709
ltoes -5.60585
1162
root 10.5869 16.4182 -1.2422 -1.19086 -19.979 2.91366
lowerback 21.952 -0.574804 2.32135
upperback 10.1046 -0.422542 0.980815
thorax -1.25223 -0.226824 -0.176626
lowerneck -14.5336 9.68002 3.54627
upperneck -2.51566 12.7457 -13.0422
head 2.67883 5.92755 -3.60656
rclavicle -3.89618e-014 -6.36111e-015
rhumerus -12.4217 28.7192 -77.2455
rradius 99.5517
rwrist 8.51677
rhand -31.7923 35.3321
rfingers 7.12502
rthumb -5.04819 5.41226
lclavicle -3.89618e-014 -6.36111e-015
lhumerus -29.0134 -11.0955 96.1221
lradius 109.064
lwrist 20.7111
lhand -28.36 0.132792
lfingers 7.12502
lthumb -1.73359 30.1055
rfemur -20.3551 -13.3396 16.2979
rtibia 55.798
rfoot -31.3951 -18.734
rtoes -11.4934
lfemur -35.9896 11.893 -23.9995
ltibia 53.5784
lfoot -13.3836 8.45388
ltoes -5.03927
1163
root 10.5703 16.4145 -1.24806 -0.490407 -18.4019 2.01013
lowerback 21.9696 -0.546262 2.90032
upperback 10.0965 -0.255122 1.16496
thorax -1.26348 -0.125546 -0.34588
lowerneck -15.0309 9.19128 3.24033
upperneck -2.28941 12.1369 -12.5945
head 2.7232 5.61608 -3.46104
rclavicle -4.77083e-015 3.89618e-014
rhumerus -10.5577 28.7186 -76.3756
rradius 98.8472
rwrist 8.2769
rhand -31.9109 35.249
rfingers 7.12502
rthumb -5.16267 5.33185
lclavicle -4.77083e-015 3.89618e-014
lhumerus -28.8602 -11.5915 96.2681
lradius 108.923
lwrist 20.7384
lhand -28.2001 -0.0796765
lfingers 7.12502
lthumb -1.57919 29.8942
rfemur -20.4497 -14.3486 17.3735
rtibia 55.6829
rfoot -31.5748 -19.1844
rtoes -11.6766
lfemur -36.6303 10.9268 -23.238
ltibia 53.5004
lfoot -13.0522 7.76812
ltoes -4.67422
1164
root 10.5449 16.4142 -1.25585 -0.148113 -16.9401 1.89718
lowerback 22.2101 -0.387801 2.61941
upperback 10.0725 -0.0847628 1.12921
thorax -1.40649 -0.0455466 -0.262016
lowerneck -15.3809 8.7456 2.73074
upperneck -2.3166 11.5816 -11.7833
head 2.6374 5.36245 -3.18354
rclavicle -2.8625e-014 -3.97569e-015
rhumerus -8.70878 28.8276 -75.6679
rradius 98.0251
rwrist 8.06729
rhand -31.7882 34.917
rfingers 7.12502
rthumb -5.04419 4.99701
lclavicle -2.8625e-014 -3.97569e-015
lhumerus -28.6788 -11.8495 96.2153
lradius 108.916
lwrist 20.48
lhand -27.9927 0.430813
lfingers 7.12502
lthumb -1.37888 30.4061
rfemur -20.5504 -15.3258 17.6236
rtibia 55.5956
rfoot -31.6219 -19.5419
rtoes -12.5074
lfemur -37.0604 10.1388 -23.266
ltibia 53.4065
lfoot -12.8759 7.11744
ltoes -4.93822
1165
root 10.5156 16.4118 -1.2547 0.181887 -15.3911 1.67193
lowerback 22.2706 -0.315659 2.50149
upperback 10.2193 -0.00845067 1.06365
thorax -1.27556 -0.0032768 -0.282397
lowerneck -15.5967 8.25562 2.23589
upperneck -2.78248 10.9298 -10.9551
head 2.39959 5.08323 -2.92416
rclavicle -7.15625e-015 -5.56597e-015
rhumerus -6.44843 28.9497 -74.8521
rradius 96.9848
rwrist 7.96964
rhand -31.4418 34.3239
rfingers 7.12502
rthumb -4.7097 4.39626
lclavicle -7.15625e-015 -5.56597e-015
lhumerus -28.1128 -12.0735 95.8449
lradius 108.855
lwrist 20.2704
lhand -27.8833 1.15544
lfingers 7.12502
lthumb -1.27316 31.1314
rfemur -20.5293 -16.3561 17.9924
rtibia 55.4767
rfoot -31.8289 -19.9726
rtoes -13.7584
lfemur -37.4004 9.53839 -23.2614
ltibia 53.3448
lfoot -12.5757 6.45384
ltoes -6.32415
1166
root 10.486 16.4179 -1.24878 0.666547 -13.6349 1.11362
lowerback 22.1398 -0.363798 2.81849
upperback 10.3589 -0.00563899 1.04085
thorax -1.05612 0.0173348 -0.487523
lowerneck -15.6908 7.74746 2.09064
upperneck -3.25812 10.2249 -10.1437
head 2.39469 4.78326 -2.98077
rclavicle 0 -1.51076e-014
rhumerus -4.18922 28.9535 -74.0583
rradius 95.9079
rwrist 8.00893
rhand -31.3978 34.0382
rfingers 7.12502
rthumb -4.66724 4.10959
lclavicle 0 -1.51076e-014
lhumerus -27.7244 -12.1347 95.5767
lradius 108.861
lwrist 20.1281
lhand -27.5852 1.61045
lfingers 7.12502
lthumb -0.985318 31.5879
rfemur -20.4979 -17.5218 18.7627
rtibia 55.2834
rfoot -32.255 -20.4253
rtoes -13.9357
lfemur -37.8397 8.70377 -22.8809
ltibia 53.2466
lfoot -12.2724 5.82339
ltoes -7.69762
1167
root 10.4544 16.4301 -1.24705 1.19057 -11.8779 0.767323
lowerback 22.191 -0.30657 3.01083
upperback 10.2274 0.124384 0.969567
thorax -1.21926 0.0937889 -0.702088
lowerneck -15.7543 7.1575 1.7573
upperneck -3.1565 9.47271 -9.28664
head 2.31291 4.43466 -2.69103
rclavicle 1.63003e-014 1.70955e-014
rhumerus -2.54234 28.83 -73.4426
rradius 95.0133
rwrist 7.85258
rhand -31.6882 33.7202
rfingers 7.12502
rthumb -4.94766 3.79794
lclavicle 1.63003e-014 1.70955e-014
lhumerus -27.9146 -12.1932 95.7131
lradius 108.764
lwrist 19.9447
lhand -27.613 1.32901
lfingers 7.12502
lthumb -1.01216 31.3064
rfemur -20.6162 -18.7256 19.3716
rtibia 55.0249
rfoot -32.8283 -20.5537
rtoes -12.359
lfemur -38.4215 7.74166 -22.6696
ltibia 53.1092
lfoot -12.0991 5.2408
ltoes -8.6154
1168
root 10.421 16.4358 -1.24314 1.68687 -10.1449 0.436304
lowerback 22.4081 -0.203712 2.99708
upperback 9.97021 0.288472 1.03991
thorax -1.60269 0.172543 -0.657565
lowerneck -15.3953 6.56566 1.33156
upperneck -3.24555 8.72082 -8.43033
head 2.09663 4.10274 -2.39793
rclavicle -3.45885e-014 -1.59028e-015
rhumerus -1.11601 28.8427 -72.7756
rradius 94.3459
rwrist 7.50308
rhand -31.5642 32.8248
rfingers 7.12502
rthumb -4.82791 2.89983
lclavicle -3.45885e-014 -1.59028e-015
lhumerus -28.0671 -12.5225 95.9338
lradius 108.437
lwrist 20.099
lhand -28.2047 0.67876
lfingers 7.12502
lthumb -1.58357 30.6526
rfemur -20.7042 -19.8869 19.9853
rtibia 54.7097
rfoot -33.3317 -20.5882
rtoes -11.3629
lfemur -39.0369 6.85402 -22.4516
ltibia 52.9291
lfoot -11.7878 4.56019
ltoes -8.43658
1169
root 10.3867 16.4493 -1.23268 2.10534 -8.47096 0.194507
lowerback 22.4955 -0.116186 2.92025
upperback 9.88427 0.403542 0.990944
thorax -1.73702 0.231771 -0.693652
lowerneck -15.1262 5.95064 1.0664
upperneck -3.54682 7.90081 -7.58832
head 1.84397 3.73622 -2.14167
rclavicle -1.47101e-014 2.26615e-014
rhumerus 0.75141 28.7319 -72.1876
rradius 93.4562
rwrist 7.12993
rhand -31.1135 32.1039
rfingers 7.12502
rthumb -4.39278 2.16946
lclavicle -1.47101e-014 2.26615e-014
lhumerus -28.0734 -12.7922 95.9292
lradius 108.564
lwrist 20.2305
lhand -28.4884 0.594854
lfingers 7.12502
lthumb -1.85762 30.5665
rfemur -20.7301 -21.0185 20.4831
rtibia 54.3941
rfoot -33.432 -20.8996
rtoes -11.4645
lfemur -39.536 5.9731 -22.2755
ltibia 52.6873
lfoot -11.2541 3.82532
ltoes -7.77418
